<svg width="25" height="25" viewBox="0 0 25 25" fill="none" xmlns="http://www.w3.org/2000/svg">
<g clip-path="url(#clip0_546_5747)">
<path d="M21.609 10.6548C21.609 17.7301 12.5122 23.7947 12.5122 23.7947C12.5122 23.7947 3.41527 17.7301 3.41527 10.6548C3.41527 8.24212 4.37369 5.92829 6.07969 4.22229C7.78569 2.5163 10.0995 1.55788 12.5122 1.55788C14.9248 1.55788 17.2386 2.5163 18.9446 4.22229C20.6506 5.92829 21.609 8.24212 21.609 10.6548Z" stroke="#1E1E1E" stroke-width="4" stroke-linecap="round" stroke-linejoin="round"/>
<path d="M12.5122 13.6871C14.1868 13.6871 15.5445 12.3295 15.5445 10.6548C15.5445 8.98007 14.1868 7.62247 12.5122 7.62247C10.8375 7.62247 9.47986 8.98007 9.47986 10.6548C9.47986 12.3295 10.8375 13.6871 12.5122 13.6871Z" stroke="#1E1E1E" stroke-width="4" stroke-linecap="round" stroke-linejoin="round"/>
</g>
<defs>
<clipPath id="clip0_546_5747">
<rect width="24.2584" height="24.2584" fill="white" transform="translate(0.382979 0.547112)"/>
</clipPath>
</defs>
</svg>
