<svg width="38" height="35" viewBox="0 0 38 35" fill="none" xmlns="http://www.w3.org/2000/svg">
<path d="M18.9407 4.76593H29.7076C30.5234 4.76593 31.3059 5.06226 31.8828 5.58971C32.4597 6.11717 32.7838 6.83256 32.7838 7.5785V27.2664C32.7838 28.0124 32.4597 28.7278 31.8828 29.2552C31.3059 29.7827 30.5234 30.079 29.7076 30.079H18.9407M18.9407 4.76593H8.17387C7.358 4.76593 6.57554 5.06226 5.99864 5.58971C5.42173 6.11717 5.09763 6.83256 5.09763 7.5785V27.2664C5.09763 28.0124 5.42173 28.7278 5.99864 29.2552C6.57554 29.7827 7.358 30.079 8.17387 30.079H18.9407M18.9407 4.76593V30.079" stroke="#1E1E1E" stroke-width="4" stroke-linecap="round" stroke-linejoin="round"/>
</svg>
