<svg width="25" height="24" viewBox="0 0 25 24" fill="none" xmlns="http://www.w3.org/2000/svg">
<path d="M4.02312 19V17H6.0258V10C6.0258 8.61667 6.44302 7.39167 7.27747 6.325C8.11192 5.24167 9.1967 4.53333 10.5318 4.2V3.5C10.5318 3.08333 10.6737 2.73333 10.9574 2.45C11.2578 2.15 11.6166 2 12.0338 2C12.451 2 12.8015 2.15 13.0852 2.45C13.3856 2.73333 13.5358 3.08333 13.5358 3.5V4.2C14.8709 4.53333 15.9557 5.24167 16.7902 6.325C17.6246 7.39167 18.0418 8.61667 18.0418 10V17H20.0445V19H4.02312ZM12.0338 22C11.4831 22 11.0074 21.8083 10.6069 21.425C10.2231 21.025 10.0311 20.55 10.0311 20H14.0365C14.0365 20.55 13.8362 21.025 13.4357 21.425C13.0518 21.8083 12.5846 22 12.0338 22ZM8.02847 17H16.0392V10C16.0392 8.9 15.647 7.95833 14.8626 7.175C14.0782 6.39167 13.1353 6 12.0338 6C10.9323 6 9.98942 6.39167 9.20504 7.175C8.42066 7.95833 8.02847 8.9 8.02847 10V17Z" fill="#1D1B20"/>
</svg>
