<svg width="49" height="48" viewBox="0 0 49 48" fill="none" xmlns="http://www.w3.org/2000/svg">
<path d="M24.9677 26C26.0737 26 26.9704 25.1046 26.9704 24C26.9704 22.8954 26.0737 22 24.9677 22C23.8616 22 22.965 22.8954 22.965 24C22.965 25.1046 23.8616 26 24.9677 26Z" stroke="black" stroke-width="4" stroke-linecap="round" stroke-linejoin="round"/>
<path d="M38.9864 26C40.0924 26 40.9891 25.1046 40.9891 24C40.9891 22.8954 40.0924 22 38.9864 22C37.8803 22 36.9837 22.8954 36.9837 24C36.9837 25.1046 37.8803 26 38.9864 26Z" stroke="black" stroke-width="4" stroke-linecap="round" stroke-linejoin="round"/>
<path d="M10.949 26C12.055 26 12.9516 25.1046 12.9516 24C12.9516 22.8954 12.055 22 10.949 22C9.84292 22 8.94629 22.8954 8.94629 24C8.94629 25.1046 9.84292 26 10.949 26Z" stroke="black" stroke-width="4" stroke-linecap="round" stroke-linejoin="round"/>
</svg>
