<svg width="60" height="60" viewBox="0 0 60 60" fill="none" xmlns="http://www.w3.org/2000/svg">
<path opacity="0.3" d="M0 23C0 10.2975 10.2975 0 23 0H37C49.7025 0 60 10.2975 60 23V37C60 49.7025 49.7025 60 37 60H23C10.2975 60 0 49.7025 0 37V23Z" fill="#FF9066"/>
<path opacity="0.901274" fill-rule="evenodd" clip-rule="evenodd" d="M21.8524 15.1898C21.9477 14.7901 22.4577 14.6696 22.7218 14.9844L24.5197 17.1271C26.2029 16.4104 28.0551 16.0139 30 16.0139C37.732 16.0139 44 22.2819 44 30.0139C44 37.7458 37.732 44.0139 30 44.0139C22.268 44.0139 16 37.7458 16 30.0139C16 28.7007 16.1808 27.4298 16.5188 26.2246L19.0864 26.9448C18.809 27.9339 18.6667 28.9631 18.6667 30.0139C18.6667 36.2731 23.7408 41.3472 30 41.3472C36.2592 41.3472 41.3333 36.2731 41.3333 30.0139C41.3333 23.7546 36.2592 18.6805 30 18.6805C28.7317 18.6805 27.4965 18.8884 26.3316 19.2865L28.133 21.4333C28.3976 21.7486 28.1892 22.2306 27.7783 22.2539L20.7336 22.6531C20.3993 22.6721 20.1412 22.3636 20.2189 22.0379L21.8524 15.1898Z" fill="#FF9066"/>
</svg>
