<svg width="49" height="50" viewBox="0 0 49 50" fill="none" xmlns="http://www.w3.org/2000/svg">
<path d="M6.125 12.3672L12.25 4.12238H36.75L42.875 12.3672M6.125 12.3672V41.224C6.125 42.3173 6.55521 43.3659 7.32098 44.139C8.08675 44.9121 9.12537 45.3464 10.2083 45.3464H38.7917C39.8746 45.3464 40.9132 44.9121 41.679 44.139C42.4448 43.3659 42.875 42.3173 42.875 41.224V12.3672M6.125 12.3672H42.875M32.6667 20.612C32.6667 22.7987 31.8063 24.8958 30.2747 26.442C28.7432 27.9882 26.6659 28.8568 24.5 28.8568C22.3341 28.8568 20.2568 27.9882 18.7253 26.442C17.1937 24.8958 16.3333 22.7987 16.3333 20.612" stroke="white" stroke-width="4" stroke-linecap="round" stroke-linejoin="round"/>
</svg>
